<?xml version="1.0" standalone="no"?>
<!DOCTYPE svg PUBLIC "-//W3C//DTD SVG 20010904//EN"
 "http://www.w3.org/TR/2001/REC-SVG-20010904/DTD/svg10.dtd">
<svg version="1.0" xmlns="http://www.w3.org/2000/svg"
 width="32.000000pt" height="32.000000pt" viewBox="0 0 32.000000 32.000000"
 preserveAspectRatio="xMidYMid meet">

<g transform="translate(0.000000,32.000000) scale(0.100000,-0.100000)"
fill="#000000" stroke="none">
<path d="M0 160 l0 -160 160 0 160 0 0 160 0 160 -160 0 -160 0 0 -160z m85
-50 c11 9 12 7 8 -9 -4 -17 -23 -31 -23 -17 0 2 -2 10 -3 18 -2 7 -2 9 1 5 2
-4 10 -3 17 3z m116 -7 c0 -11 3 -13 6 -5 5 13 23 7 23 -8 0 -5 -13 -8 -30 -7
-21 1 -30 7 -30 20 0 9 7 17 15 17 8 0 15 -8 16 -17z m-61 -14 c0 -5 -4 -9
-10 -9 -5 0 -10 6 -10 13 0 8 -4 7 -10 -3 -5 -8 -10 -10 -10 -4 0 6 3 13 6 17
8 8 34 -3 34 -14z m17 -1 c-3 -8 -6 -5 -6 6 -1 11 2 17 5 13 3 -3 4 -12 1 -19z
m103 3 c0 -6 -4 -13 -10 -16 -5 -3 -10 1 -10 9 0 9 5 16 10 16 6 0 10 -4 10
-9z"/>
</g>
</svg>
